
<svg width="122" height="155" viewBox="0 0 122 155" fill="none" xmlns="http://www.w3.org/2000/svg">
<path d="M51.4028 0.00954056C89.0009 0.00954056 107.204 7.81345 107.204 32.4082C107.204 58.806 72.4008 65.0072 68.2031 72.6107C64.8068 79.4129 87.2073 76.8084 98.999 94.8109C111.602 113.815 97.9973 152.214 122.001 152.214V154.619H101.203C85.6045 154.619 84.4025 147.215 84.4025 135.023C84.4025 120.627 84.4025 101.623 78.602 92.0251C74.4043 85.0226 59.3975 77.2282 66.4 68.6229C72.6012 61.0194 86.9974 55.6196 86.9974 37.0257C86.9974 10.0268 72.0002 2.42322 51.5936 2.42322C46.7949 2.42322 34.1922 3.62529 34.1922 8.82472V145.823C34.1922 151.222 43.389 151.623 48.1877 152.224V154.628H0V152.224C4.99908 151.623 13.9955 151.222 13.9955 145.823V8.80564C13.9955 3.40587 4.99908 3.00517 0 2.40414V0H51.4028V0.00954056Z" fill="#EAE9FB"/>
    <style>
        path {
        fill: #070713;
        }

        @media (prefers-color-scheme: dark) {
        path {
        fill: #EAE9FB;
        }
        }
    </style>
</svg>
